<svg width="32" height="33" viewBox="0 0 32 33" fill="none" xmlns="http://www.w3.org/2000/svg">
<rect y="0.604004" width="32" height="32" rx="16" fill="#0EAD6F"/>
<path fill-rule="evenodd" clip-rule="evenodd" d="M17 11.604C17 11.0517 16.5523 10.604 16 10.604C15.4477 10.604 15 11.0517 15 11.604V15.604H11C10.4477 15.604 10 16.0517 10 16.604C10 17.1563 10.4477 17.604 11 17.604H15V21.604C15 22.1563 15.4477 22.604 16 22.604C16.5523 22.604 17 22.1563 17 21.604V17.604H21C21.5523 17.604 22 17.1563 22 16.604C22 16.0517 21.5523 15.604 21 15.604H17V11.604Z" fill="white"/>
</svg>
