<svg width="32" height="33" viewBox="0 0 32 33" fill="none" xmlns="http://www.w3.org/2000/svg">
<circle cx="16" cy="16.604" r="16" fill="#16161E"/>
<path d="M9.78125 22.8228C11.1632 22.1318 12.0646 20.3512 12.5002 18.907C12.9995 17.2497 13.5156 15.5364 16.0888 15.3976C16.1507 15.3945 16.2128 15.4124 16.2647 15.4483L18.4868 17.0165C18.5611 17.0683 18.6053 17.1533 18.6053 17.2438C18.6047 21.9877 15.5706 22.8228 9.78125 22.8228Z" fill="#0EAD6F"/>
<path d="M15.6884 15.3972C15.677 15.4204 15.6632 15.4432 15.6584 15.4694C15.5868 15.8498 15.7268 16.2648 16.0612 16.669C16.6074 17.3264 17.5399 17.7393 18.2392 17.7393C18.3183 17.7393 18.3943 17.7327 18.4651 17.7193C18.5387 17.7058 18.5995 17.6605 18.6413 17.599L22.2188 10.3853H18.7674L15.6884 15.3972Z" fill="#4B23CC"/>
</svg>
