<svg width="16" height="17" viewBox="0 0 16 17" fill="none" xmlns="http://www.w3.org/2000/svg">
<path d="M8.00001 1.93738C7.63182 1.93738 7.33334 2.23585 7.33334 2.60404V4.60404C7.33334 4.97223 7.63182 5.27071 8.00001 5.27071C8.3682 5.27071 8.66668 4.97223 8.66668 4.60404V2.60404C8.66668 2.23585 8.3682 1.93738 8.00001 1.93738Z" fill="#FCFCFD"/>
<path d="M8.00001 11.9374C7.63182 11.9374 7.33334 12.2359 7.33334 12.604V14.604C7.33334 14.9722 7.63182 15.2707 8.00001 15.2707C8.3682 15.2707 8.66668 14.9722 8.66668 14.604V12.604C8.66668 12.2359 8.3682 11.9374 8.00001 11.9374Z" fill="#FCFCFD"/>
<path d="M14 7.93738C14.3682 7.93738 14.6667 8.23585 14.6667 8.60404C14.6667 8.97223 14.3682 9.27071 14 9.27071H12C11.6318 9.27071 11.3333 8.97223 11.3333 8.60404C11.3333 8.23585 11.6318 7.93738 12 7.93738H14Z" fill="#FCFCFD"/>
<path d="M4.66668 8.60404C4.66668 8.23585 4.3682 7.93738 4.00001 7.93738H2.00001C1.63182 7.93738 1.33334 8.23585 1.33334 8.60404C1.33334 8.97223 1.63182 9.27071 2.00001 9.27071H4.00001C4.3682 9.27071 4.66668 8.97223 4.66668 8.60404Z" fill="#FCFCFD"/>
<path d="M11.7713 3.89006C12.0316 3.62972 12.4537 3.62972 12.7141 3.89006C12.9744 4.15041 12.9744 4.57252 12.7141 4.83287L11.2999 6.24709C11.0395 6.50744 10.6174 6.50744 10.3571 6.24709C10.0967 5.98674 10.0967 5.56463 10.3571 5.30428L11.7713 3.89006Z" fill="#FCFCFD"/>
<path d="M5.64296 10.961C5.38262 10.7007 4.9605 10.7007 4.70016 10.961L3.28594 12.3752C3.02559 12.6356 3.02559 13.0577 3.28594 13.3181C3.54629 13.5784 3.9684 13.5784 4.22875 13.3181L5.64296 11.9038C5.90331 11.6435 5.90331 11.2214 5.64296 10.961Z" fill="#FCFCFD"/>
<path d="M12.7141 12.3753C12.9744 12.6357 12.9744 13.0578 12.7141 13.3181C12.4537 13.5785 12.0316 13.5785 11.7713 13.3181L10.357 11.9039C10.0967 11.6436 10.0967 11.2215 10.357 10.9611C10.6174 10.7008 11.0395 10.7008 11.2999 10.9611L12.7141 12.3753Z" fill="#FCFCFD"/>
<path d="M5.64303 6.247C5.90338 5.98665 5.90338 5.56454 5.64303 5.30419L4.22881 3.88998C3.96846 3.62963 3.54635 3.62963 3.286 3.88998C3.02565 4.15033 3.02565 4.57244 3.286 4.83278L4.70022 6.247C4.96057 6.50735 5.38268 6.50735 5.64303 6.247Z" fill="#FCFCFD"/>
</svg>
