<svg width="27" height="28" viewBox="0 0 27 28" fill="none" xmlns="http://www.w3.org/2000/svg">
<circle cx="13.2036" cy="14.1142" r="13.1717" fill="white"/>
<g clip-path="url(#clip0)">
<path d="M7.20343 20.7807C7.20343 20.4126 7.50191 20.1141 7.8701 20.1141H18.5368C18.905 20.1141 19.2034 20.4126 19.2034 20.7807V20.7807C19.2034 21.1489 18.905 21.4474 18.5368 21.4474H7.8701C7.50191 21.4474 7.20343 21.1489 7.20343 20.7807V20.7807Z" fill="#4B23CC"/>
<path fill-rule="evenodd" clip-rule="evenodd" d="M16.3415 8.19492C16.0812 7.93457 15.659 7.93457 15.3987 8.19492L14.8129 8.78068L17.2035 11.1712L17.7892 10.5854C18.0496 10.3251 18.0496 9.90298 17.7892 9.64263L16.3415 8.19492ZM9.81293 13.7807L13.8701 9.72349L16.2606 12.114L12.2035 16.1712L9.81293 13.7807ZM8.87012 14.7235L8.53676 15.0568V17.4474H10.9273L11.2606 17.114L8.87012 14.7235ZM14.4559 7.25211C15.2369 6.47106 16.5033 6.47106 17.2843 7.25211L18.732 8.69982C19.5131 9.48087 19.5131 10.7472 18.732 11.5282L11.8701 18.3902C11.62 18.6402 11.2809 18.7807 10.9273 18.7807H8.53676C7.80038 18.7807 7.20343 18.1837 7.20343 17.4474V15.0568C7.20343 14.7032 7.34391 14.3641 7.59395 14.114L14.4559 7.25211Z" fill="#4B23CC"/>
</g>
<defs>
<clipPath id="clip0">
<rect width="16" height="16" fill="white" transform="translate(5.20343 6.11407)"/>
</clipPath>
</defs>
</svg>
