<svg width="17" height="17" viewBox="0 0 17 17" fill="none" xmlns="http://www.w3.org/2000/svg">
<path fill-rule="evenodd" clip-rule="evenodd" d="M11.1668 3.83333H5.8335C5.46531 3.83333 5.16683 4.13181 5.16683 4.5V7.16667C5.16683 9.00762 6.65921 10.5 8.50016 10.5C10.3411 10.5 11.8335 9.00762 11.8335 7.16667V4.5C11.8335 4.13181 11.535 3.83333 11.1668 3.83333ZM5.8335 2.5C4.72893 2.5 3.8335 3.39543 3.8335 4.5V7.16667C3.8335 9.744 5.92283 11.8333 8.50016 11.8333C11.0775 11.8333 13.1668 9.744 13.1668 7.16667V4.5C13.1668 3.39543 12.2714 2.5 11.1668 2.5H5.8335Z" fill="#FCFCFD"/>
<path fill-rule="evenodd" clip-rule="evenodd" d="M1.1665 5.83331C1.1665 4.72874 2.06193 3.83331 3.1665 3.83331H5.1665V9.16665H3.83317C2.36041 9.16665 1.1665 7.97274 1.1665 6.49998V5.83331ZM3.1665 5.16665H3.83317V7.83331C3.09679 7.83331 2.49984 7.23636 2.49984 6.49998V5.83331C2.49984 5.46512 2.79831 5.16665 3.1665 5.16665Z" fill="#FCFCFD"/>
<path fill-rule="evenodd" clip-rule="evenodd" d="M15.8332 5.83331C15.8332 4.72874 14.9377 3.83331 13.8332 3.83331H11.8332V9.16665H13.1665C14.6393 9.16665 15.8332 7.97274 15.8332 6.49998V5.83331ZM13.8332 5.16665H13.1665V7.83331C13.9029 7.83331 14.4998 7.23636 14.4998 6.49998V5.83331C14.4998 5.46512 14.2014 5.16665 13.8332 5.16665Z" fill="#FCFCFD"/>
<path d="M8.50016 10.5C8.13197 10.5 7.8335 10.7985 7.8335 11.1667V13.1667H6.50016C6.13197 13.1667 5.8335 13.4651 5.8335 13.8333C5.8335 14.2015 6.13197 14.5 6.50016 14.5H10.5002C10.8684 14.5 11.1668 14.2015 11.1668 13.8333C11.1668 13.4651 10.8684 13.1667 10.5002 13.1667H9.16683V11.1667C9.16683 10.7985 8.86835 10.5 8.50016 10.5Z" fill="#FCFCFD"/>
</svg>
