<svg width="32" height="33" viewBox="0 0 32 33" fill="none" xmlns="http://www.w3.org/2000/svg">
<path d="M28 7.16675C20.5854 7.16675 20.4814 3.16675 16 3.16675C11.5187 3.16675 11.4147 7.16675 4.00004 7.16675C3.63204 7.16675 3.33337 7.46542 3.33337 7.83342C3.33337 7.83342 3.33337 11.7374 3.33337 13.8334C3.33337 14.7521 3.45204 15.6414 3.66204 16.5001C5.61937 24.5047 15.7154 29.7714 15.7154 29.7714C15.7154 29.7714 15.856 29.8334 16 29.8334C16.1354 29.8334 16.2847 29.7714 16.2847 29.7714C16.2847 29.7714 26.3807 24.5047 28.338 16.5001C28.548 15.6414 28.6667 14.7521 28.6667 13.8334C28.6667 11.7374 28.6667 7.83342 28.6667 7.83342C28.6667 7.46542 28.368 7.16675 28 7.16675Z" fill="url(#paint0_linear)"/>
<path opacity="0.05" d="M16.0107 24.5C15.3021 24.5 14.7021 24.2753 14.2274 23.8327C13.7394 23.3773 13.4914 22.8153 13.4914 22.162C13.4914 21.4807 13.7454 20.912 14.2474 20.4727C14.7227 20.056 15.3161 19.8447 16.0107 19.8447C16.7167 19.8447 17.3114 20.0607 17.7781 20.486C18.2634 20.9293 18.5087 21.4927 18.5087 22.162C18.5087 22.8353 18.2661 23.4027 17.7881 23.8473C17.3221 24.2807 16.7241 24.5 16.0107 24.5ZM15.1807 19.7787C14.5461 19.7787 14.0301 19.282 14.0061 18.648L13.6727 9.71933C13.6601 9.398 13.7767 9.09267 14.0007 8.86C14.2247 8.62733 14.5254 8.5 14.8474 8.5H17.1321C17.4547 8.5 17.7554 8.628 17.9794 8.86067C18.2034 9.094 18.3194 9.4 18.3061 9.72267L17.9534 18.65C17.9281 19.2833 17.4121 19.7787 16.7787 19.7787H15.1807Z" fill="black"/>
<path opacity="0.07" d="M16.0107 24.1666C15.3893 24.1666 14.866 23.9719 14.4546 23.5886C14.0366 23.1986 13.8253 22.7186 13.8253 22.1619C13.8253 21.5806 14.0413 21.0966 14.4673 20.7233C14.8807 20.3613 15.3993 20.1779 16.0107 20.1779C16.6307 20.1779 17.1493 20.3646 17.5533 20.7326C17.966 21.1093 18.1753 21.5906 18.1753 22.1619C18.1753 22.7393 17.9686 23.2239 17.5613 23.6039C17.1593 23.9773 16.638 24.1666 16.0107 24.1666ZM15.1806 19.4453C14.726 19.4453 14.3567 19.0893 14.3393 18.6353L14.006 9.70725C13.9973 9.47659 14.0806 9.25792 14.2413 9.09125C14.402 8.92459 14.6166 8.83325 14.848 8.83325H17.1326C17.364 8.83325 17.5793 8.92525 17.7393 9.09192C17.8993 9.25858 17.9826 9.47792 17.9733 9.70925L17.62 18.6366C17.602 19.0906 17.232 19.4453 16.7786 19.4453H15.1806Z" fill="black"/>
<path d="M16.0101 23.8334C15.4734 23.8334 15.0301 23.6707 14.6814 23.3447C14.3327 23.0187 14.1581 22.6254 14.1581 22.1621C14.1581 21.6787 14.3341 21.2828 14.6867 20.9741C15.0387 20.6654 15.4801 20.5114 16.0107 20.5114C16.5474 20.5114 16.9874 20.6674 17.3294 20.9794C17.6721 21.2921 17.8427 21.6854 17.8427 22.1621C17.8427 22.6454 17.6734 23.0441 17.3347 23.3594C16.9954 23.6748 16.5534 23.8334 16.0101 23.8334ZM17.6401 9.69541L17.2874 18.6234C17.2761 18.8961 17.0521 19.1121 16.7794 19.1121H15.1814C14.9081 19.1121 14.6834 18.8961 14.6734 18.6221L14.3401 9.69475C14.3281 9.40675 14.5587 9.16675 14.8474 9.16675H17.1327C17.4207 9.16675 17.6514 9.40675 17.6401 9.69541Z" fill="url(#paint1_radial)"/>
<defs>
<linearGradient id="paint0_linear" x1="9.10737" y1="-6.14125" x2="22.9907" y2="30.0254" gradientUnits="userSpaceOnUse">
<stop stop-color="#FFDA1C"/>
<stop offset="1" stop-color="#FEB705"/>
</linearGradient>
<radialGradient id="paint1_radial" cx="0" cy="0" r="1" gradientUnits="userSpaceOnUse" gradientTransform="translate(13.6267 8.82408) scale(16.3787)">
<stop stop-color="#4B4B4B"/>
<stop offset="0.531" stop-color="#393939"/>
<stop offset="1" stop-color="#252525"/>
</radialGradient>
</defs>
</svg>
