<svg width="28" height="28" viewBox="0 0 28 28" fill="none" xmlns="http://www.w3.org/2000/svg">
<path d="M15.2204 2.64639L16.6258 3.43485L18.2371 3.4546C19.174 3.46645 20.0375 3.96482 20.5161 4.77021L21.339 6.1558L22.7246 6.97868C23.5306 7.45729 24.0289 8.32081 24.0402 9.25771L24.06 10.8691L24.8484 12.2744C25.3067 13.0916 25.3067 14.0889 24.8484 14.9062L24.06 16.3115L24.0402 17.9229C24.0284 18.8598 23.53 19.7233 22.7246 20.2019L21.339 21.0248L20.5161 22.4104C20.0375 23.2163 19.174 23.7147 18.2371 23.726L16.6258 23.7457L15.2204 24.5342C14.4032 24.9925 13.4059 24.9925 12.5886 24.5342L11.1833 23.7457L9.57195 23.726C8.63505 23.7141 7.77153 23.2158 7.29292 22.4104L6.47003 21.0248L5.08445 20.2019C4.27849 19.7233 3.78013 18.8598 3.76884 17.9229L3.74909 16.3115L2.96063 14.9062C2.50234 14.0889 2.50234 13.0916 2.96063 12.2744L3.74909 10.8691L3.76884 9.25771C3.78069 8.32081 4.27905 7.45729 5.08445 6.97868L6.47003 6.1558L7.29292 4.77021C7.77153 3.96425 8.63505 3.46589 9.57195 3.4546L11.1833 3.43485L12.5886 2.64639C13.4064 2.1881 14.4032 2.1881 15.2204 2.64639Z" fill="url(#paint0_linear)"/>
<path opacity="0.05" d="M18.5173 9.17251L12.7763 14.9135L9.85726 11.9945C9.41647 11.5537 8.70195 11.5537 8.26116 11.9945L7.4631 12.7925C7.02231 13.2333 7.02231 13.9479 7.4631 14.3886L11.9783 18.9038C12.4191 19.3446 13.1336 19.3446 13.5744 18.9038L20.9115 11.5667C21.3523 11.1259 21.3523 10.4114 20.9115 9.97057L20.1134 9.17251C19.6726 8.73172 18.9581 8.73172 18.5173 9.17251Z" fill="black"/>
<path opacity="0.07" d="M12.1773 18.7046L7.66211 14.1894C7.33138 13.8587 7.33138 13.3225 7.66211 12.9923L8.46017 12.1943C8.7909 11.8635 9.32708 11.8635 9.65725 12.1943L12.7761 15.3125L18.7163 9.37229C19.0471 9.04155 19.5833 9.04155 19.9134 9.37229L20.7115 10.1703C21.0422 10.5011 21.0422 11.0373 20.7115 11.3674L13.3744 18.7046C13.0442 19.0347 12.508 19.0347 12.1773 18.7046Z" fill="black"/>
<path d="M12.3771 18.5048L7.86192 13.9896C7.64124 13.7689 7.64124 13.4117 7.86192 13.1916L8.65997 12.3935C8.88065 12.1728 9.23791 12.1728 9.45803 12.3935L12.7761 15.7116L18.9162 9.57155C19.1368 9.35087 19.4941 9.35087 19.7142 9.57155L20.5123 10.3696C20.7329 10.5903 20.7329 10.9475 20.5123 11.1677L13.1751 18.5048C12.955 18.7255 12.5972 18.7255 12.3771 18.5048Z" fill="white"/>
<defs>
<linearGradient id="paint0_linear" x1="6.22622" y1="5.91198" x2="21.7759" y2="21.4616" gradientUnits="userSpaceOnUse">
<stop stop-color="#21AD64"/>
<stop offset="1" stop-color="#088242"/>
</linearGradient>
</defs>
</svg>
