<svg width="16" height="16" viewBox="0 0 16 16" fill="none" xmlns="http://www.w3.org/2000/svg">
<path fill-rule="evenodd" clip-rule="evenodd" d="M7.99998 2.66668C6.69849 2.66668 5.49875 2.77401 4.53578 2.90119C3.66913 3.01565 3.01562 3.66916 2.90116 4.53581C2.77398 5.49879 2.66665 6.69852 2.66665 8.00001C2.66665 9.3015 2.77398 10.5012 2.90116 11.4642C3.01562 12.3309 3.66913 12.9844 4.53578 13.0988C5.49875 13.226 6.69849 13.3333 7.99998 13.3333C9.30147 13.3333 10.5012 13.226 11.4642 13.0988C12.3308 12.9844 12.9843 12.3309 13.0988 11.4642C13.226 10.5012 13.3333 9.3015 13.3333 8.00001C13.3333 6.69852 13.226 5.49879 13.0988 4.53581C12.9843 3.66916 12.3308 3.01565 11.4642 2.90119C10.5012 2.77401 9.30147 2.66668 7.99998 2.66668ZM4.36121 1.57934C2.89668 1.77276 1.77273 2.89671 1.57931 4.36124C1.44634 5.36807 1.33331 6.62753 1.33331 8.00001C1.33331 9.37249 1.44634 10.632 1.57931 11.6388C1.77273 13.1033 2.89668 14.2273 4.36121 14.4207C5.36803 14.5537 6.6275 14.6667 7.99998 14.6667C9.37246 14.6667 10.6319 14.5537 11.6388 14.4207C13.1033 14.2273 14.2272 13.1033 14.4207 11.6388C14.5536 10.632 14.6666 9.37249 14.6666 8.00001C14.6666 6.62753 14.5536 5.36807 14.4207 4.36124C14.2272 2.89671 13.1033 1.77276 11.6388 1.57934C10.6319 1.44637 9.37246 1.33334 7.99998 1.33334C6.6275 1.33334 5.36803 1.44637 4.36121 1.57934Z" fill="#FCFCFD"/>
<path d="M5.99998 7.33332C6.73636 7.33332 7.33331 6.73637 7.33331 5.99999C7.33331 5.26361 6.73636 4.66666 5.99998 4.66666C5.2636 4.66666 4.66665 5.26361 4.66665 5.99999C4.66665 6.73637 5.2636 7.33332 5.99998 7.33332Z" fill="#FCFCFD"/>
<path d="M12.0809 8.47152L13.2771 9.66773C13.2358 10.2919 13.1755 10.871 13.1091 11.3854L11.138 9.41433C10.8777 9.15398 10.4556 9.15398 10.1952 9.41433L8.74752 10.862C7.96647 11.6431 6.70014 11.6431 5.9191 10.862L5.80471 10.7477C5.54436 10.4873 5.12226 10.4873 4.86191 10.7477L3.25586 12.3537C3.06981 12.1014 2.94533 11.7987 2.90115 11.4642C2.87706 11.2818 2.85368 11.0908 2.8316 10.8923L3.9191 9.80485C4.70015 9.0238 5.96648 9.0238 6.74752 9.80485L6.86191 9.91923C7.12226 10.1796 7.54437 10.1796 7.80471 9.91923L9.25243 8.47152C10.0335 7.69047 11.2998 7.69047 12.0809 8.47152Z" fill="#FCFCFD"/>
</svg>
