<svg width="16" height="16" viewBox="0 0 16 16" fill="none" xmlns="http://www.w3.org/2000/svg">
<path fill-rule="evenodd" clip-rule="evenodd" d="M8.00016 2.66659C6.69867 2.66659 5.49894 2.77392 4.53597 2.9011C3.66931 3.01556 3.01581 3.66907 2.90135 4.53572C2.77417 5.49869 2.66683 6.69843 2.66683 7.99992C2.66683 9.30141 2.77417 10.5011 2.90135 11.4641C3.01581 12.3308 3.66931 12.9843 4.53597 13.0987C5.49894 13.2259 6.69867 13.3333 8.00016 13.3333C9.30165 13.3333 10.5014 13.2259 11.4644 13.0987C12.331 12.9843 12.9845 12.3308 13.099 11.4641C13.2262 10.5011 13.3335 9.30141 13.3335 7.99992C13.3335 6.69843 13.2262 5.49869 13.099 4.53572C12.9845 3.66907 12.331 3.01556 11.4644 2.9011C10.5014 2.77392 9.30165 2.66659 8.00016 2.66659ZM4.36139 1.57925C2.89686 1.77267 1.77291 2.89661 1.57949 4.36114C1.44652 5.36797 1.3335 6.62743 1.3335 7.99992C1.3335 9.3724 1.44652 10.6319 1.57949 11.6387C1.77291 13.1032 2.89686 14.2272 4.36139 14.4206C5.36822 14.5536 6.62768 14.6666 8.00016 14.6666C9.37265 14.6666 10.6321 14.5536 11.6389 14.4206C13.1035 14.2272 14.2274 13.1032 14.4208 11.6387C14.5538 10.6319 14.6668 9.3724 14.6668 7.99992C14.6668 6.62743 14.5538 5.36797 14.4208 4.36115C14.2274 2.89661 13.1035 1.77267 11.6389 1.57925C10.6321 1.44627 9.37265 1.33325 8.00016 1.33325C6.62768 1.33325 5.36822 1.44627 4.36139 1.57925Z" fill="#FCFCFD"/>
<path d="M5.99992 7.33341C6.7363 7.33341 7.33325 6.73646 7.33325 6.00008C7.33325 5.2637 6.7363 4.66675 5.99992 4.66675C5.26354 4.66675 4.66659 5.2637 4.66659 6.00008C4.66659 6.73646 5.26354 7.33341 5.99992 7.33341Z" fill="#FCFCFD"/>
<path d="M12.0808 8.47161L13.277 9.66782C13.2357 10.292 13.1755 10.8711 13.109 11.3855L11.138 9.41442C10.8776 9.15407 10.4555 9.15407 10.1952 9.41442L8.74746 10.8621C7.96641 11.6432 6.70008 11.6432 5.91904 10.8621L5.80465 10.7478C5.5443 10.4874 5.1222 10.4874 4.86185 10.7478L3.2558 12.3538C3.06975 12.1015 2.94527 11.7988 2.90109 11.4643C2.877 11.2819 2.85362 11.0909 2.83154 10.8924L3.91904 9.80494C4.70009 9.02389 5.96641 9.0239 6.74746 9.80494L6.86184 9.91933C7.12219 10.1797 7.5443 10.1797 7.80465 9.91933L9.25237 8.47161C10.0334 7.69056 11.2997 7.69056 12.0808 8.47161Z" fill="#FCFCFD"/>
</svg>
