<svg width="48" height="48" viewBox="0 0 48 48" fill="none" xmlns="http://www.w3.org/2000/svg">
<path d="M44 24C44 35 35 44 24 44C13 44 4 35 4 24C4 13 13 4 24 4C35 4 44 13 44 24Z" fill="#F44336"/>
<path d="M29 21H27V19C27 18.5 26.8 16 24 16C21.2 16 21 18.5 21 19V21H19V19C19 17.3 20 14 24 14C28 14 29 17.3 29 19V21Z" fill="white"/>
<path d="M30.2 32H17.8C16.8 32 16 31.2 16 30.2V21.8C16 20.8 16.8 20 17.8 20H30.2C31.2 20 32 20.8 32 21.8V30.2C32 31.2 31.2 32 30.2 32Z" fill="#FFCDD2"/>
<path d="M26 26C26 27.1 25.1 28 24 28C22.9 28 22 27.1 22 26C22 24.9 22.9 24 24 24C25.1 24 26 24.9 26 26Z" fill="#C62828"/>
</svg>
