<svg width="28" height="37" viewBox="0 0 28 37" fill="none" xmlns="http://www.w3.org/2000/svg">
<path fill-rule="evenodd" clip-rule="evenodd" d="M11.9964 0.762659C13.1415 0.0602344 14.5841 0.0602332 15.7292 0.762657L25.4151 6.70396C26.4732 7.35305 27.1182 8.50529 27.1182 9.74668V22.0124C27.1182 23.2538 26.4732 24.406 25.4151 25.0551L17.218 30.0832C17.6436 31.2258 18.3068 32.1881 19.5736 33.1331C19.7391 33.2566 19.7673 33.4973 19.6275 33.6494L16.8639 36.6554C16.7344 36.7962 16.5149 36.8027 16.3868 36.6605C15.3017 35.4565 13.3605 32.5218 12.7313 31.3392C12.4773 31.2543 12.2306 31.1401 11.9964 30.9964L2.31055 25.0551C1.25238 24.406 0.607422 23.2538 0.607422 22.0124V9.74668C0.607422 8.50529 1.25238 7.35305 2.31055 6.70396L11.9964 0.762659ZM14.0406 3.51559L23.7264 9.45689C23.8272 9.51871 23.8886 9.62845 23.8886 9.74668V22.0124C23.8886 22.1306 23.8272 22.2403 23.7264 22.3021L14.0406 28.2435C13.9315 28.3104 13.7941 28.3104 13.6851 28.2435L3.9992 22.3021C3.89842 22.2403 3.837 22.1306 3.837 22.0124V9.74668C3.837 9.62845 3.89842 9.51871 3.9992 9.45689L13.6851 3.51559C13.7941 3.44869 13.9315 3.44869 14.0406 3.51559Z" fill="white"/>
</svg>
