<svg width="96" height="96" viewBox="0 0 96 96" fill="none" xmlns="http://www.w3.org/2000/svg">
<path d="M74.0401 61.9794H22.5695V16.4477C22.5695 13.1674 25.2281 10.5088 28.5084 10.5088H68.1012C71.3814 10.5088 74.0401 13.1674 74.0401 16.4477V61.9794Z" fill="#0EAD6F" fill-opacity="0.68"/>
<path d="M77.9994 67.9184H18.6102V22.3867C18.6102 19.1064 21.2689 16.4478 24.5491 16.4478H72.0605C75.3408 16.4478 77.9994 19.1064 77.9994 22.3867V67.9184Z" fill="#0EAD6F" fill-opacity="0.75"/>
<path d="M81.9588 77.8164H14.651V28.3254C14.651 25.0451 17.3097 22.3865 20.5899 22.3865H76.0198C79.3001 22.3865 81.9588 25.0451 81.9588 28.3254V77.8164Z" fill="#0EAD6F"/>
<path d="M64.142 30.3049C63.092 30.3049 62.0849 30.7221 61.3424 31.4646C60.5999 32.2071 60.1827 33.2141 60.1827 34.2642C60.1827 35.3143 60.5999 36.3213 61.3424 37.0638C62.0849 37.8064 63.092 38.2235 64.142 38.2235C65.1921 38.2235 66.1991 37.8064 66.9417 37.0638C67.6842 36.3213 68.1013 35.3143 68.1013 34.2642C68.1013 33.2141 67.6842 32.2071 66.9417 31.4646C66.1991 30.7221 65.1921 30.3049 64.142 30.3049Z" fill="#B7E1FA"/>
<path d="M42.3658 32.2844L24.5491 58.0197H60.1826L42.3658 32.2844Z" fill="#9FD0EB"/>
<path d="M60.1826 44.1621L48.3048 59.9992H72.0605L60.1826 44.1621Z" fill="#B7E1FA"/>
<path d="M83.9385 85.7346H12.6714C10.4839 85.7346 8.71216 83.9629 8.71216 81.7754V56.04H87.8977V81.7754C87.8977 83.9629 86.126 85.7346 83.9385 85.7346Z" fill="#4B23CC"/>
<path d="M55.2337 69.8981H41.3762C39.7371 69.8981 38.4067 68.5678 38.4067 66.9287C38.4067 65.2895 39.7371 63.9592 41.3762 63.9592H55.2337C56.8728 63.9592 58.2031 65.2895 58.2031 66.9287C58.2031 68.5678 56.8728 69.8981 55.2337 69.8981Z" fill="#6C42F5"/>
</svg>
