<svg width="32" height="33" viewBox="0 0 32 33" fill="none" xmlns="http://www.w3.org/2000/svg">
<circle cx="16" cy="16.604" r="16" fill="#16161E"/>
<g clip-path="url(#clip0)">
<path d="M16.5305 8.97729C16.2983 8.97729 16.0998 9.07703 15.934 9.24283L11.6892 13.6197V19.5885L15.967 23.9654C16.0996 24.1312 16.3314 24.2309 16.5635 24.2309C16.9946 24.2309 17.3595 23.866 17.3595 23.4349V9.77326C17.3263 9.34218 16.9615 8.97729 16.5305 8.97729ZM20.4669 10.5666C20.3924 10.5678 20.3205 10.594 20.2627 10.6411C20.2049 10.6881 20.1646 10.7532 20.1484 10.826C20.1321 10.8987 20.1409 10.9748 20.1732 11.0419C20.2055 11.1091 20.2594 11.1634 20.3264 11.1962C22.3081 12.2028 23.6599 14.2438 23.6599 16.6041C23.6599 18.9644 22.3081 21.0054 20.3264 22.012C20.248 22.0519 20.1886 22.1212 20.1613 22.2049C20.1341 22.2885 20.1411 22.3795 20.181 22.4579C20.2208 22.5363 20.2902 22.5957 20.3738 22.623C20.4574 22.6503 20.5485 22.6432 20.6269 22.6033C22.8233 21.4877 24.3231 19.2178 24.3231 16.6041C24.3231 13.9904 22.8233 11.7205 20.6269 10.6049C20.5776 10.5789 20.5226 10.5657 20.4669 10.5666ZM19.2836 12.3244C19.2093 12.3235 19.1368 12.3475 19.0778 12.3927C19.0188 12.4379 18.9767 12.5017 18.9583 12.5737C18.9398 12.6457 18.9461 12.7218 18.9761 12.7898C19.0061 12.8578 19.0581 12.9138 19.1237 12.9487C20.413 13.6548 21.3056 15.0386 21.3056 16.6041C21.3056 18.1739 20.4436 19.5518 19.1619 20.2232C19.1233 20.2434 19.0891 20.2711 19.0612 20.3045C19.0333 20.338 19.0123 20.3766 18.9993 20.4182C18.9864 20.4598 18.9817 20.5035 18.9857 20.5469C18.9896 20.5903 19.0021 20.6325 19.0223 20.6711C19.0426 20.7096 19.0702 20.7438 19.1037 20.7717C19.1371 20.7996 19.1758 20.8206 19.2173 20.8336C19.2589 20.8466 19.3027 20.8512 19.346 20.8473C19.3894 20.8433 19.4316 20.8309 19.4702 20.8106C20.9739 20.023 21.9688 18.4166 21.9688 16.6041C21.9688 14.7872 20.9385 13.1864 19.4423 12.3671C19.3939 12.3398 19.3393 12.3251 19.2836 12.3244ZM9.36803 13.6197C8.80431 13.6197 8.37323 14.0508 8.37323 14.6145V18.5937C8.37323 19.1574 8.80431 19.5885 9.36803 19.5885H11.026V13.6197H9.36803ZM17.8692 14.415C17.7891 14.419 17.7131 14.4518 17.6554 14.5075C17.5976 14.5632 17.562 14.6379 17.5552 14.7178C17.5483 14.7977 17.5706 14.8774 17.618 14.9421C17.6653 15.0068 17.7346 15.0522 17.8128 15.0698C18.4899 15.2323 18.9844 15.8562 18.9844 16.6041C18.9844 17.352 18.4956 17.947 17.8005 18.1416C17.7578 18.1527 17.7177 18.1721 17.6827 18.1988C17.6476 18.2256 17.6181 18.259 17.5961 18.2972C17.5741 18.3355 17.56 18.3777 17.5545 18.4214C17.549 18.4652 17.5523 18.5096 17.5642 18.5521C17.5761 18.5946 17.5963 18.6342 17.6237 18.6688C17.6511 18.7034 17.6852 18.7321 17.7238 18.7533C17.7625 18.7746 17.805 18.7879 17.8488 18.7925C17.8927 18.7971 17.937 18.793 17.9793 18.7802C18.9422 18.5106 19.6476 17.6468 19.6476 16.6041C19.6476 15.5614 18.9485 14.6601 17.9676 14.4247C17.9355 14.4166 17.9023 14.4133 17.8692 14.415Z" fill="#0EAD6F"/>
<path d="M16.5305 8.97729C16.2983 8.97729 16.0998 9.07703 15.934 9.24283L11.6892 13.6197V19.5885L15.967 23.9654C16.0996 24.1312 16.3314 24.2309 16.5635 24.2309C16.9946 24.2309 17.3595 23.866 17.3595 23.4349V9.77326C17.3263 9.34218 16.9615 8.97729 16.5305 8.97729ZM9.36803 13.6197C8.80431 13.6197 8.37323 14.0508 8.37323 14.6145V18.5937C8.37323 19.1574 8.80431 19.5885 9.36803 19.5885H11.026V13.6197H9.36803Z" fill="#4B23CC"/>
</g>
<defs>
<clipPath id="clip0">
<rect width="16.58" height="16.58" fill="white" transform="translate(7.71002 8.31409)"/>
</clipPath>
</defs>
</svg>
