<svg width="17" height="17" viewBox="0 0 17 17" fill="none" xmlns="http://www.w3.org/2000/svg">
<g clip-path="url(#clip0)">
<path d="M2.20361 14.7807C2.20361 14.4125 2.50209 14.114 2.87028 14.114H13.5369C13.9051 14.114 14.2036 14.4125 14.2036 14.7807C14.2036 15.1489 13.9051 15.4473 13.5369 15.4473H2.87028C2.50209 15.4473 2.20361 15.1489 2.20361 14.7807Z" fill="#4B23CC"/>
<path fill-rule="evenodd" clip-rule="evenodd" d="M11.3417 2.19486C11.0813 1.93451 10.6592 1.93451 10.3989 2.19486L9.81311 2.78062L12.2036 5.17114L12.7894 4.58538C13.0498 4.32503 13.0497 3.90292 12.7894 3.64257L11.3417 2.19486ZM4.81311 7.78062L8.8703 3.72343L11.2608 6.11395L7.20363 10.1711L4.81311 7.78062ZM3.8703 8.72343L3.53695 9.05678V11.4473H5.92747L6.26083 11.114L3.8703 8.72343ZM9.45607 1.25205C10.2371 0.470998 11.5034 0.470998 12.2845 1.25205L13.7322 2.69976C14.5133 3.48081 14.5133 4.74714 13.7322 5.52819L6.87028 12.3901C6.62023 12.6402 6.28109 12.7806 5.92747 12.7806H3.53695C2.80057 12.7806 2.20361 12.1837 2.20361 11.4473V9.05678C2.20361 8.70316 2.34409 8.36402 2.59414 8.11398L9.45607 1.25205Z" fill="#4B23CC"/>
</g>
<defs>
<clipPath id="clip0">
<rect width="16" height="16" fill="white" transform="translate(0.203613 0.114014)"/>
</clipPath>
</defs>
</svg>
