<svg width="57" height="57" viewBox="0 0 57 57" fill="none" xmlns="http://www.w3.org/2000/svg">
<circle cx="28.4508" cy="28.6473" r="27.4508" fill="#16161E" fill-opacity="0.2" stroke="#16161E"/>
<path fill-rule="evenodd" clip-rule="evenodd" d="M26.9398 14.2868C27.8669 13.7181 29.0348 13.7181 29.9619 14.2868L37.8038 19.097C38.6606 19.6225 39.1827 20.5554 39.1827 21.5604V31.491C39.1827 32.4961 38.6606 33.4289 37.8038 33.9545L31.1673 38.0253C31.5119 38.9504 32.0488 39.7295 33.0744 40.4946C33.2084 40.5946 33.2313 40.7895 33.1181 40.9126L30.8806 43.3464C30.7758 43.4604 30.598 43.4656 30.4943 43.3505C29.6158 42.3757 28.0442 39.9997 27.5348 39.0423C27.3291 38.9735 27.1294 38.881 26.9398 38.7647L19.0979 33.9545C18.2412 33.4289 17.719 32.4961 17.719 31.491V21.5604C17.719 20.5554 18.2412 19.6225 19.0979 19.097L26.9398 14.2868ZM28.5948 16.5156L36.4367 21.3258C36.5183 21.3759 36.568 21.4647 36.568 21.5604V31.491C36.568 31.5867 36.5183 31.6756 36.4367 31.7256L28.5948 36.5358C28.5065 36.59 28.3953 36.59 28.307 36.5358L20.4651 31.7256C20.3835 31.6756 20.3337 31.5867 20.3337 31.491V21.5604C20.3337 21.4647 20.3835 21.3759 20.4651 21.3258L28.307 16.5156C28.3953 16.4614 28.5065 16.4614 28.5948 16.5156Z" fill="white"/>
</svg>
