<svg width="32" height="33" viewBox="0 0 32 33" fill="none" xmlns="http://www.w3.org/2000/svg">
<circle cx="16" cy="16.604" r="16" fill="#16161E"/>
<g clip-path="url(#clip0)">
<path d="M9.36796 11.2985C8.43922 11.2985 7.70996 12.0277 7.70996 12.9565V20.2517C7.70996 21.1804 8.43922 21.9097 9.36796 21.9097H18.3212C19.2499 21.9097 19.9792 21.1804 19.9792 20.2517V12.9565C19.9792 12.0277 19.2499 11.2985 18.3212 11.2985H9.36796ZM24.29 12.3969L20.6424 14.345V18.8631L24.29 20.8112V12.3969Z" fill="#0EAD6F"/>
<path d="M9.36796 11.2985C8.43922 11.2985 7.70996 12.0277 7.70996 12.9565V20.2517C7.70996 21.1804 8.43922 21.9097 9.36796 21.9097H18.3212C19.2499 21.9097 19.9792 21.1804 19.9792 20.2517V12.9565C19.9792 12.0277 19.2499 11.2985 18.3212 11.2985H9.36796Z" fill="#4B23CC"/>
</g>
<defs>
<clipPath id="clip0">
<rect width="16.58" height="16.58" fill="white" transform="translate(7.70996 8.31409)"/>
</clipPath>
</defs>
</svg>
