<svg width="95" height="106" viewBox="0 0 95 106" fill="none" xmlns="http://www.w3.org/2000/svg">
<path d="M78.1244 92.7569C78.1244 94.1364 77.0093 95.2515 75.6297 95.2515H18.2527C16.8732 95.2515 15.7581 94.1364 15.7581 92.7569V12.928C15.7581 11.5485 16.8732 10.4333 18.2527 10.4333H75.6297C77.0093 10.4333 78.1244 11.5485 78.1244 12.928V92.7569Z" fill="#4B23CC"/>
<path d="M47.894 49.9336H46.9411H45.9881C46.9411 64.4849 40.2654 70.3049 40.2654 70.3049H53.6168C53.6168 70.3049 46.9411 64.4849 47.894 49.9336Z" fill="white"/>
<path d="M39.572 62.5441C42.6529 62.5441 45.3571 60.9949 46.9412 58.6425C48.5253 60.9949 51.2295 62.5441 54.3129 62.5441C59.1949 62.5441 63.1564 58.6425 63.1564 53.8278C63.1564 45.1539 49.3735 40.9778 46.9412 35.3798C44.5089 40.9753 30.7259 45.0815 30.7259 53.8278C30.7259 58.64 34.6874 62.5441 39.572 62.5441ZM69.0288 25.5659H64.7455L63.9996 27.8959H60.6618L65.4116 15.4226H68.3478L73.135 27.8959H69.7822L69.0288 25.5659ZM65.4964 23.2433H68.2779L66.8834 18.9201L65.4964 23.2433ZM29.8678 77.7889H33.2206L28.4333 90.2622H25.4971L20.7473 77.7889H24.0852L24.8311 80.1189H29.1144L29.8678 77.7889ZM26.969 86.7672L28.3635 82.4439H25.582L26.969 86.7672Z" fill="white"/>
</svg>
